<svg width="19" height="27" viewBox="0 0 19 27" fill="none" xmlns="http://www.w3.org/2000/svg">
<rect y="0.759766" width="19" height="16.72" fill="#78C260"/>
<path d="M0 25.8398H19" stroke="#78C260" stroke-width="2"/>
<path d="M9.1926 7.7C8.8226 7.7 8.5126 7.585 8.2626 7.355C8.0226 7.115 7.9026 6.82 7.9026 6.47C7.9026 6.12 8.0226 5.83 8.2626 5.6C8.5126 5.36 8.8226 5.24 9.1926 5.24C9.5626 5.24 9.8676 5.36 10.1076 5.6C10.3576 5.83 10.4826 6.12 10.4826 6.47C10.4826 6.82 10.3576 7.115 10.1076 7.355C9.8676 7.585 9.5626 7.7 9.1926 7.7ZM10.2276 8.69V17H8.1276V8.69H10.2276Z" fill="white"/>
<path d="M9.5 25.0801L0 17.4801L19 17.4801L9.5 25.0801Z" fill="#77C360"/>
</svg>
